<svg width="56" height="56" viewBox="0 0 56 56" fill="none" xmlns="http://www.w3.org/2000/svg">
<path fill-rule="evenodd" clip-rule="evenodd" d="M16.4863 7.15301C17.3739 6.26534 18.5779 5.76665 19.8332 5.76665C21.7074 5.76665 23.5049 6.51117 24.8301 7.83643C26.1554 9.16169 26.8999 10.9591 26.8999 12.8333V15.2333H19.8332C18.5779 15.2333 17.3739 14.7346 16.4863 13.847C15.5986 12.9593 15.0999 11.7553 15.0999 10.5C15.0999 9.24463 15.5986 8.04068 16.4863 7.15301ZM26.3858 6.28079C27.0332 6.92825 27.575 7.66164 27.9999 8.45417C28.4248 7.66164 28.9666 6.92825 29.614 6.28079C31.3519 4.54296 33.7089 3.56665 36.1666 3.56665C38.0054 3.56665 39.7689 4.29712 41.0692 5.59738C42.3694 6.89763 43.0999 8.66115 43.0999 10.5C43.0999 11.4105 42.9206 12.3121 42.5721 13.1533C42.2237 13.9944 41.713 14.7588 41.0692 15.4026C40.4254 16.0464 39.661 16.5571 38.8198 16.9056C37.9786 17.254 37.0771 17.4333 36.1666 17.4333H27.9999H19.8332C17.9944 17.4333 16.2309 16.7028 14.9306 15.4026C13.6304 14.1023 12.8999 12.3388 12.8999 10.5C12.8999 8.66115 13.6304 6.89763 14.9306 5.59738C16.2309 4.29712 17.9944 3.56665 19.8332 3.56665C22.2909 3.56665 24.6479 4.54296 26.3858 6.28079ZM29.0999 15.2333V12.8333C29.0999 10.9591 29.8444 9.16169 31.1697 7.83643C32.4949 6.51117 34.2924 5.76665 36.1666 5.76665C37.4219 5.76665 38.6259 6.26534 39.5135 7.15301C40.4012 8.04068 40.8999 9.24463 40.8999 10.5C40.8999 11.1216 40.7775 11.7371 40.5396 12.3114C40.3017 12.8856 39.9531 13.4074 39.5135 13.847C39.074 14.2865 38.5522 14.6351 37.9779 14.873C37.4037 15.1109 36.7882 15.2333 36.1666 15.2333H29.0999ZM10.4319 25.6671C10.4319 25.0596 9.93945 24.5671 9.33193 24.5671C8.72442 24.5671 8.23193 25.0596 8.23193 25.6671V44.3338C8.23193 45.8632 8.83949 47.33 9.92095 48.4115C11.0024 49.4929 12.4692 50.1005 13.9986 50.1005H41.9986C43.528 50.1005 44.9948 49.4929 46.0762 48.4115C47.1577 47.33 47.7653 45.8632 47.7653 44.3338V25.6671C47.7653 25.0596 47.2728 24.5671 46.6653 24.5671C46.0578 24.5671 45.5653 25.0596 45.5653 25.6671V44.3338C45.5653 45.2797 45.1895 46.1869 44.5206 46.8558C43.8517 47.5247 42.9445 47.9005 41.9986 47.9005H13.9986C13.0527 47.9005 12.1455 47.5247 11.4766 46.8558C10.8077 46.1869 10.4319 45.2797 10.4319 44.3338V25.6671Z" fill="black"/>
<path fill-rule="evenodd" clip-rule="evenodd" d="M5.8999 16.3333C5.8999 15.7258 6.39239 15.2333 6.9999 15.2333H48.9999C49.6074 15.2333 50.0999 15.7258 50.0999 16.3333V25.6666C50.0999 26.2741 49.6074 26.7666 48.9999 26.7666H29.0999V48.9999C29.0999 49.6075 28.6074 50.0999 27.9999 50.0999C27.3924 50.0999 26.8999 49.6075 26.8999 48.9999V26.7666H6.9999C6.39239 26.7666 5.8999 26.2741 5.8999 25.6666V16.3333ZM47.8999 24.5666V17.4333H8.0999V24.5666H47.8999Z" fill="#A52D23"/>
</svg>
