<svg width="56" height="56" viewBox="0 0 56 56" fill="none" xmlns="http://www.w3.org/2000/svg">
<mask id="path-1-inside-1_115_426" fill="white">
<path d="M36.6011 30.8155C35.7378 30.8181 34.8769 30.7242 34.0345 30.5355C34.5255 31.5966 34.901 32.7074 35.1545 33.8489H36.6011C38.1875 33.8464 39.7631 33.589 41.2678 33.0866L39.8211 30.2711C38.7778 30.5993 37.6943 30.7825 36.6011 30.8155ZM28.5589 27.7977L27.9989 27.2066C26.7844 26.0192 25.8477 24.5777 25.256 22.9856C24.6644 21.3935 24.4324 19.6901 24.5767 17.9977C24.7355 15.7309 25.5699 13.5636 26.9722 11.7755L26.8478 14C26.8462 14.3894 26.9907 14.7652 27.2528 15.0532C27.5149 15.3412 27.8755 15.5205 28.2633 15.5555H28.4033C28.7928 15.5571 29.1686 15.4126 29.4566 15.1505C29.7446 14.8884 29.9239 14.5278 29.9589 14.14L30.4878 7.77775C30.5064 7.55244 30.4757 7.32577 30.3978 7.11354C30.3199 6.90131 30.1967 6.70861 30.0367 6.54886C29.8664 6.41092 29.6689 6.31052 29.4571 6.25422C29.2454 6.19793 29.0241 6.18701 28.8078 6.22219L22.4456 6.76664C22.033 6.8017 21.6513 6.99922 21.3844 7.31574C21.1174 7.63226 20.9872 8.04185 21.0222 8.45441C21.0573 8.86697 21.2548 9.2487 21.5713 9.51563C21.8879 9.78256 22.2975 9.91281 22.71 9.87775L24.7167 9.70664C22.8271 12.0711 21.7134 14.9612 21.5278 17.9822C21.3671 20.0526 21.6549 22.1333 22.3717 24.0822C23.0884 26.0312 24.2173 27.8026 25.6811 29.2755L26.1633 29.8511C28.1511 31.9053 29.2948 34.6313 29.3678 37.4889C29.4507 38.7832 29.314 40.0823 28.9634 41.3311L31.7633 42.7466C32.3657 40.9932 32.6039 39.1353 32.4633 37.2866C32.3678 33.7522 30.9785 30.3758 28.5589 27.7977ZM50.3989 27.86L48.5167 28C50.2342 25.777 51.2935 23.1167 51.5741 20.3216C51.8547 17.5265 51.3454 14.7088 50.104 12.1888C48.8627 9.66876 46.9391 7.54766 44.552 6.06665C42.165 4.58564 39.4103 3.80416 36.6011 3.81108C35.0144 3.80834 33.4379 4.06583 31.9345 4.5733L33.35 7.3733C35.1259 6.87036 36.9942 6.78629 38.8081 7.1277C40.622 7.46912 42.3319 8.2267 43.8034 9.34088C45.2749 10.4551 46.4678 11.8954 47.2884 13.5487C48.1089 15.202 48.5347 17.0231 48.5322 18.8689C48.5317 21.5361 47.6269 24.1244 45.9656 26.2111L46.1211 23.8155C46.1344 23.6112 46.1073 23.4064 46.0414 23.2125C45.9755 23.0187 45.8721 22.8398 45.737 22.686C45.602 22.5321 45.4379 22.4064 45.2543 22.316C45.0706 22.2255 44.871 22.1721 44.6667 22.1589C44.4624 22.1456 44.2575 22.1727 44.0637 22.2386C43.8699 22.3045 43.691 22.4079 43.5371 22.543C43.3833 22.678 43.2576 22.8421 43.1671 23.0257C43.0767 23.2094 43.0233 23.409 43.01 23.6133L42.5745 29.96C42.5621 30.1851 42.5988 30.4102 42.6821 30.6197C42.7654 30.8292 42.8932 31.0181 43.0567 31.1733C43.1965 31.3152 43.3638 31.427 43.5484 31.5019C43.7329 31.5768 43.9309 31.6132 44.13 31.6089H44.2856L50.6322 30.9555C50.8369 30.9361 51.0357 30.8763 51.2171 30.7795C51.3985 30.6828 51.5589 30.5511 51.6891 30.392C51.8193 30.2329 51.9167 30.0495 51.9756 29.8525C52.0345 29.6556 52.0537 29.4489 52.0322 29.2444C51.989 28.8484 51.7956 28.484 51.4917 28.2265C51.1878 27.9689 50.7966 27.8377 50.3989 27.86ZM6.33002 31.7955H6.45446L12.8167 31.2511C13.021 31.2337 13.2198 31.1763 13.4019 31.0821C13.584 30.9879 13.7457 30.8587 13.8779 30.702C14.0101 30.5452 14.1101 30.364 14.1722 30.1687C14.2343 29.9733 14.2574 29.7676 14.24 29.5633C14.2227 29.359 14.1652 29.1602 14.071 28.9781C13.9768 28.796 13.8476 28.6343 13.6909 28.5021C13.5342 28.3699 13.353 28.2699 13.1576 28.2078C12.9622 28.1456 12.7565 28.1226 12.5522 28.14L10.39 28.3266C12.4267 26.8242 14.8903 26.012 17.4211 26.0089C18.2737 26.014 19.1235 26.1078 19.9567 26.2889C19.4681 25.2283 19.0977 24.1171 18.8522 22.9755H17.4211C14.1022 22.9706 10.8751 24.0645 8.24335 26.0866L8.43002 24.0489C8.44703 23.8444 8.42344 23.6387 8.36062 23.4434C8.2978 23.2482 8.19699 23.0673 8.06398 22.9111C7.93097 22.755 7.76839 22.6267 7.5856 22.5336C7.40281 22.4406 7.20342 22.3846 6.99891 22.3689C6.58853 22.3344 6.18123 22.464 5.8663 22.7294C5.55138 22.9947 5.35452 23.3741 5.31891 23.7844L4.77446 30.1311C4.75725 30.3456 4.78472 30.5613 4.85515 30.7646C4.92558 30.968 5.03743 31.1545 5.18363 31.3124C5.32982 31.4703 5.50719 31.5961 5.70452 31.682C5.90184 31.7678 6.11483 31.8118 6.33002 31.8111V31.7955ZM28.6522 43.9133L22.29 44.3333C21.8775 44.3601 21.4924 44.5497 21.2197 44.8604C20.9469 45.1711 20.8088 45.5774 20.8356 45.99C20.8624 46.4025 21.052 46.7875 21.3627 47.0603C21.6734 47.3331 22.0797 47.4712 22.4922 47.4444L24.8878 47.2733C23.1261 48.6892 21.0001 49.5785 18.755 49.8387C16.5098 50.0988 14.2369 49.7193 12.198 48.7438C10.1592 47.7683 8.43754 46.2365 7.23145 44.325C6.02535 42.4135 5.38394 40.2001 5.38113 37.94C5.39233 36.8875 5.54405 35.8412 5.83224 34.8289L3.11002 33.3822C2.62811 34.8642 2.38142 36.4127 2.37891 37.9711C2.39716 40.7882 3.20372 43.544 4.70729 45.9264C6.21086 48.3088 8.35138 50.2227 10.8865 51.4515C13.4216 52.6802 16.2501 53.1746 19.0518 52.8788C21.8534 52.583 24.5163 51.5088 26.7389 49.7777L26.5522 51.6133C26.5307 51.8166 26.5494 52.0221 26.6073 52.2181C26.6652 52.4142 26.7612 52.5969 26.8898 52.7558C27.0184 52.9147 27.177 53.0467 27.3567 53.1443C27.5363 53.2419 27.7334 53.3031 27.9367 53.3244H28.1078C28.4948 53.3263 28.8686 53.184 29.1562 52.9251C29.4438 52.6662 29.6247 52.3094 29.6633 51.9244L30.3167 45.6089C30.3398 45.3838 30.3135 45.1564 30.2397 44.9426C30.1659 44.7287 30.0464 44.5335 29.8894 44.3706C29.7324 44.2077 29.5418 44.081 29.3308 43.9993C29.1198 43.9177 28.8935 43.883 28.6678 43.8977L28.6522 43.9133Z"/>
</mask>
<path d="M36.6011 30.8155C35.7378 30.8181 34.8769 30.7242 34.0345 30.5355C34.5255 31.5966 34.901 32.7074 35.1545 33.8489H36.6011C38.1875 33.8464 39.7631 33.589 41.2678 33.0866L39.8211 30.2711C38.7778 30.5993 37.6943 30.7825 36.6011 30.8155ZM28.5589 27.7977L27.9989 27.2066C26.7844 26.0192 25.8477 24.5777 25.256 22.9856C24.6644 21.3935 24.4324 19.6901 24.5767 17.9977C24.7355 15.7309 25.5699 13.5636 26.9722 11.7755L26.8478 14C26.8462 14.3894 26.9907 14.7652 27.2528 15.0532C27.5149 15.3412 27.8755 15.5205 28.2633 15.5555H28.4033C28.7928 15.5571 29.1686 15.4126 29.4566 15.1505C29.7446 14.8884 29.9239 14.5278 29.9589 14.14L30.4878 7.77775C30.5064 7.55244 30.4757 7.32577 30.3978 7.11354C30.3199 6.90131 30.1967 6.70861 30.0367 6.54886C29.8664 6.41092 29.6689 6.31052 29.4571 6.25422C29.2454 6.19793 29.0241 6.18701 28.8078 6.22219L22.4456 6.76664C22.033 6.8017 21.6513 6.99922 21.3844 7.31574C21.1174 7.63226 20.9872 8.04185 21.0222 8.45441C21.0573 8.86697 21.2548 9.2487 21.5713 9.51563C21.8879 9.78256 22.2975 9.91281 22.71 9.87775L24.7167 9.70664C22.8271 12.0711 21.7134 14.9612 21.5278 17.9822C21.3671 20.0526 21.6549 22.1333 22.3717 24.0822C23.0884 26.0312 24.2173 27.8026 25.6811 29.2755L26.1633 29.8511C28.1511 31.9053 29.2948 34.6313 29.3678 37.4889C29.4507 38.7832 29.314 40.0823 28.9634 41.3311L31.7633 42.7466C32.3657 40.9932 32.6039 39.1353 32.4633 37.2866C32.3678 33.7522 30.9785 30.3758 28.5589 27.7977ZM50.3989 27.86L48.5167 28C50.2342 25.777 51.2935 23.1167 51.5741 20.3216C51.8547 17.5265 51.3454 14.7088 50.104 12.1888C48.8627 9.66876 46.9391 7.54766 44.552 6.06665C42.165 4.58564 39.4103 3.80416 36.6011 3.81108C35.0144 3.80834 33.4379 4.06583 31.9345 4.5733L33.35 7.3733C35.1259 6.87036 36.9942 6.78629 38.8081 7.1277C40.622 7.46912 42.3319 8.2267 43.8034 9.34088C45.2749 10.4551 46.4678 11.8954 47.2884 13.5487C48.1089 15.202 48.5347 17.0231 48.5322 18.8689C48.5317 21.5361 47.6269 24.1244 45.9656 26.2111L46.1211 23.8155C46.1344 23.6112 46.1073 23.4064 46.0414 23.2125C45.9755 23.0187 45.8721 22.8398 45.737 22.686C45.602 22.5321 45.4379 22.4064 45.2543 22.316C45.0706 22.2255 44.871 22.1721 44.6667 22.1589C44.4624 22.1456 44.2575 22.1727 44.0637 22.2386C43.8699 22.3045 43.691 22.4079 43.5371 22.543C43.3833 22.678 43.2576 22.8421 43.1671 23.0257C43.0767 23.2094 43.0233 23.409 43.01 23.6133L42.5745 29.96C42.5621 30.1851 42.5988 30.4102 42.6821 30.6197C42.7654 30.8292 42.8932 31.0181 43.0567 31.1733C43.1965 31.3152 43.3638 31.427 43.5484 31.5019C43.7329 31.5768 43.9309 31.6132 44.13 31.6089H44.2856L50.6322 30.9555C50.8369 30.9361 51.0357 30.8763 51.2171 30.7795C51.3985 30.6828 51.5589 30.5511 51.6891 30.392C51.8193 30.2329 51.9167 30.0495 51.9756 29.8525C52.0345 29.6556 52.0537 29.4489 52.0322 29.2444C51.989 28.8484 51.7956 28.484 51.4917 28.2265C51.1878 27.9689 50.7966 27.8377 50.3989 27.86ZM6.33002 31.7955H6.45446L12.8167 31.2511C13.021 31.2337 13.2198 31.1763 13.4019 31.0821C13.584 30.9879 13.7457 30.8587 13.8779 30.702C14.0101 30.5452 14.1101 30.364 14.1722 30.1687C14.2343 29.9733 14.2574 29.7676 14.24 29.5633C14.2227 29.359 14.1652 29.1602 14.071 28.9781C13.9768 28.796 13.8476 28.6343 13.6909 28.5021C13.5342 28.3699 13.353 28.2699 13.1576 28.2078C12.9622 28.1456 12.7565 28.1226 12.5522 28.14L10.39 28.3266C12.4267 26.8242 14.8903 26.012 17.4211 26.0089C18.2737 26.014 19.1235 26.1078 19.9567 26.2889C19.4681 25.2283 19.0977 24.1171 18.8522 22.9755H17.4211C14.1022 22.9706 10.8751 24.0645 8.24335 26.0866L8.43002 24.0489C8.44703 23.8444 8.42344 23.6387 8.36062 23.4434C8.2978 23.2482 8.19699 23.0673 8.06398 22.9111C7.93097 22.755 7.76839 22.6267 7.5856 22.5336C7.40281 22.4406 7.20342 22.3846 6.99891 22.3689C6.58853 22.3344 6.18123 22.464 5.8663 22.7294C5.55138 22.9947 5.35452 23.3741 5.31891 23.7844L4.77446 30.1311C4.75725 30.3456 4.78472 30.5613 4.85515 30.7646C4.92558 30.968 5.03743 31.1545 5.18363 31.3124C5.32982 31.4703 5.50719 31.5961 5.70452 31.682C5.90184 31.7678 6.11483 31.8118 6.33002 31.8111V31.7955ZM28.6522 43.9133L22.29 44.3333C21.8775 44.3601 21.4924 44.5497 21.2197 44.8604C20.9469 45.1711 20.8088 45.5774 20.8356 45.99C20.8624 46.4025 21.052 46.7875 21.3627 47.0603C21.6734 47.3331 22.0797 47.4712 22.4922 47.4444L24.8878 47.2733C23.1261 48.6892 21.0001 49.5785 18.755 49.8387C16.5098 50.0988 14.2369 49.7193 12.198 48.7438C10.1592 47.7683 8.43754 46.2365 7.23145 44.325C6.02535 42.4135 5.38394 40.2001 5.38113 37.94C5.39233 36.8875 5.54405 35.8412 5.83224 34.8289L3.11002 33.3822C2.62811 34.8642 2.38142 36.4127 2.37891 37.9711C2.39716 40.7882 3.20372 43.544 4.70729 45.9264C6.21086 48.3088 8.35138 50.2227 10.8865 51.4515C13.4216 52.6802 16.2501 53.1746 19.0518 52.8788C21.8534 52.583 24.5163 51.5088 26.7389 49.7777L26.5522 51.6133C26.5307 51.8166 26.5494 52.0221 26.6073 52.2181C26.6652 52.4142 26.7612 52.5969 26.8898 52.7558C27.0184 52.9147 27.177 53.0467 27.3567 53.1443C27.5363 53.2419 27.7334 53.3031 27.9367 53.3244H28.1078C28.4948 53.3263 28.8686 53.184 29.1562 52.9251C29.4438 52.6662 29.6247 52.3094 29.6633 51.9244L30.3167 45.6089C30.3398 45.3838 30.3135 45.1564 30.2397 44.9426C30.1659 44.7287 30.0464 44.5335 29.8894 44.3706C29.7324 44.2077 29.5418 44.081 29.3308 43.9993C29.1198 43.9177 28.8935 43.883 28.6678 43.8977L28.6522 43.9133Z" fill="black" stroke="white" stroke-width="0.4" mask="url(#path-1-inside-1_115_426)"/>
<mask id="mask0_115_426" style="mask-type:alpha" maskUnits="userSpaceOnUse" x="2" y="3" width="51" height="51">
<path d="M36.6011 30.8155C35.7378 30.8181 34.8769 30.7242 34.0345 30.5355C34.5255 31.5966 34.901 32.7074 35.1545 33.8489H36.6011C38.1875 33.8464 39.7631 33.589 41.2678 33.0866L39.8211 30.2711C38.7778 30.5993 37.6943 30.7825 36.6011 30.8155ZM28.5589 27.7977L27.9989 27.2066C26.7844 26.0192 25.8477 24.5777 25.256 22.9856C24.6644 21.3935 24.4324 19.6901 24.5767 17.9977C24.7355 15.7309 25.5699 13.5636 26.9722 11.7755L26.8478 14C26.8462 14.3894 26.9907 14.7652 27.2528 15.0532C27.5149 15.3412 27.8755 15.5205 28.2633 15.5555H28.4033C28.7928 15.5571 29.1686 15.4126 29.4566 15.1505C29.7446 14.8884 29.9239 14.5278 29.9589 14.14L30.4878 7.77775C30.5064 7.55244 30.4757 7.32577 30.3978 7.11354C30.3199 6.90131 30.1967 6.70861 30.0367 6.54886C29.8664 6.41092 29.6689 6.31052 29.4571 6.25422C29.2454 6.19793 29.0241 6.18701 28.8078 6.22219L22.4456 6.76664C22.033 6.8017 21.6513 6.99922 21.3844 7.31574C21.1174 7.63226 20.9872 8.04185 21.0222 8.45441C21.0573 8.86697 21.2548 9.2487 21.5713 9.51563C21.8879 9.78256 22.2975 9.91281 22.71 9.87775L24.7167 9.70664C22.8271 12.0711 21.7134 14.9612 21.5278 17.9822C21.3671 20.0526 21.6549 22.1333 22.3717 24.0822C23.0884 26.0312 24.2173 27.8026 25.6811 29.2755L26.1633 29.8511C28.1511 31.9053 29.2948 34.6313 29.3678 37.4889C29.4507 38.7832 29.314 40.0823 28.9634 41.3311L31.7633 42.7466C32.3657 40.9932 32.6039 39.1353 32.4633 37.2866C32.3678 33.7522 30.9785 30.3758 28.5589 27.7977ZM50.3989 27.86L48.5167 28C50.2342 25.777 51.2935 23.1167 51.5741 20.3216C51.8547 17.5265 51.3454 14.7088 50.104 12.1888C48.8627 9.66876 46.9391 7.54766 44.552 6.06665C42.165 4.58564 39.4103 3.80416 36.6011 3.81108C35.0144 3.80834 33.4379 4.06583 31.9345 4.5733L33.35 7.3733C35.1259 6.87036 36.9942 6.78629 38.8081 7.1277C40.622 7.46912 42.3319 8.2267 43.8034 9.34088C45.2749 10.4551 46.4678 11.8954 47.2884 13.5487C48.1089 15.202 48.5347 17.0231 48.5322 18.8689C48.5317 21.5361 47.6269 24.1244 45.9656 26.2111L46.1211 23.8155C46.1344 23.6112 46.1073 23.4064 46.0414 23.2125C45.9755 23.0187 45.8721 22.8398 45.737 22.686C45.602 22.5321 45.4379 22.4064 45.2543 22.316C45.0706 22.2255 44.871 22.1721 44.6667 22.1589C44.4624 22.1456 44.2575 22.1727 44.0637 22.2386C43.8699 22.3045 43.691 22.4079 43.5371 22.543C43.3833 22.678 43.2576 22.8421 43.1671 23.0257C43.0767 23.2094 43.0233 23.409 43.01 23.6133L42.5745 29.96C42.5621 30.1851 42.5988 30.4102 42.6821 30.6197C42.7654 30.8292 42.8932 31.0181 43.0567 31.1733C43.1965 31.3152 43.3638 31.427 43.5484 31.5019C43.7329 31.5768 43.9309 31.6132 44.13 31.6089H44.2856L50.6322 30.9555C50.8369 30.9361 51.0357 30.8763 51.2171 30.7795C51.3985 30.6828 51.5589 30.5511 51.6891 30.392C51.8193 30.2329 51.9167 30.0495 51.9756 29.8525C52.0345 29.6556 52.0537 29.4489 52.0322 29.2444C51.989 28.8484 51.7956 28.484 51.4917 28.2265C51.1878 27.9689 50.7966 27.8377 50.3989 27.86ZM6.33002 31.7955H6.45446L12.8167 31.2511C13.021 31.2337 13.2198 31.1763 13.4019 31.0821C13.584 30.9879 13.7457 30.8587 13.8779 30.702C14.0101 30.5452 14.1101 30.364 14.1722 30.1687C14.2343 29.9733 14.2574 29.7676 14.24 29.5633C14.2227 29.359 14.1652 29.1602 14.071 28.9781C13.9768 28.796 13.8476 28.6343 13.6909 28.5021C13.5342 28.3699 13.353 28.2699 13.1576 28.2078C12.9622 28.1456 12.7565 28.1226 12.5522 28.14L10.39 28.3266C12.4267 26.8242 14.8903 26.012 17.4211 26.0089C18.2737 26.014 19.1235 26.1078 19.9567 26.2889C19.4681 25.2283 19.0977 24.1171 18.8522 22.9755H17.4211C14.1022 22.9706 10.8751 24.0645 8.24335 26.0866L8.43002 24.0489C8.44703 23.8444 8.42344 23.6387 8.36062 23.4434C8.2978 23.2482 8.19699 23.0673 8.06398 22.9111C7.93097 22.755 7.76839 22.6267 7.5856 22.5336C7.40281 22.4406 7.20342 22.3846 6.99891 22.3689C6.58853 22.3344 6.18123 22.464 5.8663 22.7294C5.55138 22.9947 5.35452 23.3741 5.31891 23.7844L4.77446 30.1311C4.75725 30.3456 4.78472 30.5613 4.85515 30.7646C4.92558 30.968 5.03743 31.1545 5.18363 31.3124C5.32982 31.4703 5.50719 31.5961 5.70452 31.682C5.90184 31.7678 6.11483 31.8118 6.33002 31.8111V31.7955ZM28.6522 43.9133L22.29 44.3333C21.8775 44.3601 21.4924 44.5497 21.2197 44.8604C20.9469 45.1711 20.8088 45.5774 20.8356 45.99C20.8624 46.4025 21.052 46.7875 21.3627 47.0603C21.6734 47.3331 22.0797 47.4712 22.4922 47.4444L24.8878 47.2733C23.1261 48.6892 21.0001 49.5785 18.755 49.8387C16.5098 50.0988 14.2369 49.7193 12.198 48.7438C10.1592 47.7683 8.43754 46.2365 7.23145 44.325C6.02535 42.4135 5.38394 40.2001 5.38113 37.94C5.39233 36.8875 5.54405 35.8412 5.83224 34.8289L3.11002 33.3822C2.62811 34.8642 2.38142 36.4127 2.37891 37.9711C2.39716 40.7882 3.20372 43.544 4.70729 45.9264C6.21086 48.3088 8.35138 50.2227 10.8865 51.4515C13.4216 52.6802 16.2501 53.1746 19.0518 52.8788C21.8534 52.583 24.5163 51.5088 26.7389 49.7777L26.5522 51.6133C26.5307 51.8166 26.5494 52.0221 26.6073 52.2181C26.6652 52.4142 26.7612 52.5969 26.8898 52.7558C27.0184 52.9147 27.177 53.0467 27.3567 53.1443C27.5363 53.2419 27.7334 53.3031 27.9367 53.3244H28.1078C28.4948 53.3263 28.8686 53.184 29.1562 52.9251C29.4438 52.6662 29.6247 52.3094 29.6633 51.9244L30.3167 45.6089C30.3398 45.3838 30.3135 45.1564 30.2397 44.9426C30.1659 44.7287 30.0464 44.5335 29.8894 44.3706C29.7324 44.2077 29.5418 44.081 29.3308 43.9993C29.1198 43.9177 28.8935 43.883 28.6678 43.8977L28.6522 43.9133Z" fill="black"/>
</mask>
<g mask="url(#mask0_115_426)">
<path d="M33 15L29.5 1H50.5L65 15L58.5 37L35.5 38.5L31 27L33 15Z" fill="#A52D23"/>
<path d="M18 18L22.5 30L11 37L2 30.5L-1 21.5L1.5 13.5L18 18Z" fill="#A52D23"/>
<path fill-rule="evenodd" clip-rule="evenodd" d="M33.2041 14.9918L31.2063 26.9785L35.6329 38.2909L58.3477 36.8095L64.7738 15.0596L50.4192 1.2H29.7562L33.2041 14.9918ZM29.5 1H50.5L65 15L58.5 37L35.5 38.5L31 27L33 15L29.5 1ZM17.8487 18.166L1.63339 13.7437L-0.789842 21.498L2.16935 30.3756L11.0094 36.7601L22.2546 29.9152L17.8487 18.166ZM22.5 30L18 18L1.5 13.5L-1 21.5L2 30.5L11 37L22.5 30Z" fill="white"/>
</g>
</svg>
